<mxfile host="app.diagrams.net" modified="2020-09-16T00:50:24.515Z" agent="5.0 (Windows NT 10.0; Win64; x64) AppleWebKit/537.36 (KHTML, like Gecko) Chrome/85.0.4183.102 Safari/537.36" etag="XqTY73cTuNKWQxNgUZ3x" version="13.7.1" type="github">
  <diagram id="LvztO2mjmJwx9FV7N6l9" name="Page-1">
    <mxGraphModel dx="868" dy="450" grid="1" gridSize="10" guides="1" tooltips="1" connect="1" arrows="1" fold="1" page="1" pageScale="1" pageWidth="827" pageHeight="1169" math="0" shadow="0">
      <root>
        <mxCell id="0" />
        <mxCell id="1" parent="0" />
        <mxCell id="q_vgm2Y0gYOVun20q5jM-4" value="" style="edgeStyle=orthogonalEdgeStyle;rounded=0;orthogonalLoop=1;jettySize=auto;html=1;" edge="1" parent="1" source="q_vgm2Y0gYOVun20q5jM-1" target="q_vgm2Y0gYOVun20q5jM-3">
          <mxGeometry relative="1" as="geometry" />
        </mxCell>
        <mxCell id="q_vgm2Y0gYOVun20q5jM-1" value="Usuário" style="shape=umlActor;verticalLabelPosition=bottom;verticalAlign=top;html=1;outlineConnect=0;" vertex="1" parent="1">
          <mxGeometry x="40" y="40" width="40" height="80" as="geometry" />
        </mxCell>
        <mxCell id="q_vgm2Y0gYOVun20q5jM-6" value="" style="edgeStyle=orthogonalEdgeStyle;rounded=0;orthogonalLoop=1;jettySize=auto;html=1;" edge="1" parent="1" source="q_vgm2Y0gYOVun20q5jM-3" target="q_vgm2Y0gYOVun20q5jM-5">
          <mxGeometry relative="1" as="geometry" />
        </mxCell>
        <mxCell id="q_vgm2Y0gYOVun20q5jM-21" value="" style="edgeStyle=orthogonalEdgeStyle;rounded=0;orthogonalLoop=1;jettySize=auto;html=1;" edge="1" parent="1" source="q_vgm2Y0gYOVun20q5jM-3" target="q_vgm2Y0gYOVun20q5jM-20">
          <mxGeometry relative="1" as="geometry" />
        </mxCell>
        <mxCell id="q_vgm2Y0gYOVun20q5jM-3" value="HOME" style="rounded=1;whiteSpace=wrap;html=1;" vertex="1" parent="1">
          <mxGeometry x="160" y="50" width="120" height="60" as="geometry" />
        </mxCell>
        <mxCell id="q_vgm2Y0gYOVun20q5jM-12" value="" style="edgeStyle=orthogonalEdgeStyle;rounded=0;orthogonalLoop=1;jettySize=auto;html=1;" edge="1" parent="1" source="q_vgm2Y0gYOVun20q5jM-5" target="q_vgm2Y0gYOVun20q5jM-11">
          <mxGeometry relative="1" as="geometry" />
        </mxCell>
        <mxCell id="q_vgm2Y0gYOVun20q5jM-27" value="" style="edgeStyle=orthogonalEdgeStyle;rounded=0;orthogonalLoop=1;jettySize=auto;html=1;" edge="1" parent="1" source="q_vgm2Y0gYOVun20q5jM-5" target="q_vgm2Y0gYOVun20q5jM-26">
          <mxGeometry relative="1" as="geometry" />
        </mxCell>
        <mxCell id="q_vgm2Y0gYOVun20q5jM-5" value="Header" style="shape=step;perimeter=stepPerimeter;whiteSpace=wrap;html=1;fixedSize=1;rounded=1;" vertex="1" parent="1">
          <mxGeometry x="160" y="180" width="120" height="40" as="geometry" />
        </mxCell>
        <mxCell id="q_vgm2Y0gYOVun20q5jM-50" style="edgeStyle=orthogonalEdgeStyle;rounded=0;orthogonalLoop=1;jettySize=auto;html=1;exitX=0.5;exitY=1;exitDx=0;exitDy=0;entryX=0.5;entryY=0;entryDx=0;entryDy=0;" edge="1" parent="1" source="q_vgm2Y0gYOVun20q5jM-11" target="q_vgm2Y0gYOVun20q5jM-15">
          <mxGeometry relative="1" as="geometry" />
        </mxCell>
        <mxCell id="q_vgm2Y0gYOVun20q5jM-11" value="Menu" style="whiteSpace=wrap;html=1;rounded=1;" vertex="1" parent="1">
          <mxGeometry x="570" y="180" width="120" height="40" as="geometry" />
        </mxCell>
        <mxCell id="q_vgm2Y0gYOVun20q5jM-51" style="edgeStyle=orthogonalEdgeStyle;rounded=0;orthogonalLoop=1;jettySize=auto;html=1;exitX=0;exitY=0.5;exitDx=0;exitDy=0;entryX=1;entryY=0.5;entryDx=0;entryDy=0;" edge="1" parent="1" source="q_vgm2Y0gYOVun20q5jM-15" target="q_vgm2Y0gYOVun20q5jM-26">
          <mxGeometry relative="1" as="geometry">
            <Array as="points">
              <mxPoint x="530" y="380" />
              <mxPoint x="530" y="280" />
            </Array>
          </mxGeometry>
        </mxCell>
        <mxCell id="q_vgm2Y0gYOVun20q5jM-15" value="Sobre" style="whiteSpace=wrap;html=1;rounded=1;" vertex="1" parent="1">
          <mxGeometry x="570" y="360" width="120" height="40" as="geometry" />
        </mxCell>
        <mxCell id="q_vgm2Y0gYOVun20q5jM-52" style="edgeStyle=orthogonalEdgeStyle;rounded=0;orthogonalLoop=1;jettySize=auto;html=1;exitX=0;exitY=0.5;exitDx=0;exitDy=0;entryX=1;entryY=0.5;entryDx=0;entryDy=0;" edge="1" parent="1" source="q_vgm2Y0gYOVun20q5jM-17" target="q_vgm2Y0gYOVun20q5jM-28">
          <mxGeometry relative="1" as="geometry">
            <mxPoint x="330" y="370" as="targetPoint" />
          </mxGeometry>
        </mxCell>
        <mxCell id="q_vgm2Y0gYOVun20q5jM-17" value="Skills" style="whiteSpace=wrap;html=1;rounded=1;" vertex="1" parent="1">
          <mxGeometry x="570" y="410" width="120" height="40" as="geometry" />
        </mxCell>
        <mxCell id="q_vgm2Y0gYOVun20q5jM-53" style="edgeStyle=orthogonalEdgeStyle;rounded=0;orthogonalLoop=1;jettySize=auto;html=1;exitX=0;exitY=0.5;exitDx=0;exitDy=0;entryX=1;entryY=0.5;entryDx=0;entryDy=0;" edge="1" parent="1" source="q_vgm2Y0gYOVun20q5jM-18" target="q_vgm2Y0gYOVun20q5jM-30">
          <mxGeometry relative="1" as="geometry" />
        </mxCell>
        <mxCell id="q_vgm2Y0gYOVun20q5jM-18" value="Portfólio" style="whiteSpace=wrap;html=1;rounded=1;" vertex="1" parent="1">
          <mxGeometry x="570" y="460" width="120" height="40" as="geometry" />
        </mxCell>
        <mxCell id="q_vgm2Y0gYOVun20q5jM-54" style="edgeStyle=orthogonalEdgeStyle;rounded=0;orthogonalLoop=1;jettySize=auto;html=1;exitX=0;exitY=0.5;exitDx=0;exitDy=0;entryX=1;entryY=0.5;entryDx=0;entryDy=0;" edge="1" parent="1" source="q_vgm2Y0gYOVun20q5jM-19" target="q_vgm2Y0gYOVun20q5jM-32">
          <mxGeometry relative="1" as="geometry" />
        </mxCell>
        <mxCell id="q_vgm2Y0gYOVun20q5jM-19" value="Contato" style="whiteSpace=wrap;html=1;rounded=1;" vertex="1" parent="1">
          <mxGeometry x="570" y="510" width="120" height="40" as="geometry" />
        </mxCell>
        <mxCell id="q_vgm2Y0gYOVun20q5jM-20" value="&lt;p style=&quot;line-height: 40%&quot;&gt;&lt;/p&gt;&lt;h1&gt;&lt;span&gt;One Page&lt;/span&gt;&lt;/h1&gt;&lt;h1&gt;&lt;span style=&quot;font-size: 12px ; font-weight: normal ; line-height: 40%&quot;&gt;Esse site possui a dinâmica de &quot;one page&quot;, possui seções que são navegáveis pelo menu principal do site.&lt;/span&gt;&lt;br&gt;&lt;/h1&gt;&lt;p&gt;&lt;/p&gt;" style="text;html=1;strokeColor=#6c8ebf;fillColor=#dae8fc;spacing=5;spacingTop=-20;whiteSpace=wrap;overflow=hidden;rounded=0;" vertex="1" parent="1">
          <mxGeometry x="330" y="20" width="410" height="120" as="geometry" />
        </mxCell>
        <mxCell id="q_vgm2Y0gYOVun20q5jM-29" value="" style="edgeStyle=orthogonalEdgeStyle;rounded=0;orthogonalLoop=1;jettySize=auto;html=1;" edge="1" parent="1" source="q_vgm2Y0gYOVun20q5jM-26" target="q_vgm2Y0gYOVun20q5jM-28">
          <mxGeometry relative="1" as="geometry" />
        </mxCell>
        <mxCell id="q_vgm2Y0gYOVun20q5jM-26" value="Sobre" style="whiteSpace=wrap;html=1;rounded=1;" vertex="1" parent="1">
          <mxGeometry x="160" y="250" width="120" height="60" as="geometry" />
        </mxCell>
        <mxCell id="q_vgm2Y0gYOVun20q5jM-31" value="" style="edgeStyle=orthogonalEdgeStyle;rounded=0;orthogonalLoop=1;jettySize=auto;html=1;" edge="1" parent="1" source="q_vgm2Y0gYOVun20q5jM-28" target="q_vgm2Y0gYOVun20q5jM-30">
          <mxGeometry relative="1" as="geometry" />
        </mxCell>
        <mxCell id="q_vgm2Y0gYOVun20q5jM-28" value="Skils" style="whiteSpace=wrap;html=1;rounded=1;" vertex="1" parent="1">
          <mxGeometry x="160" y="350" width="120" height="60" as="geometry" />
        </mxCell>
        <mxCell id="q_vgm2Y0gYOVun20q5jM-33" value="" style="edgeStyle=orthogonalEdgeStyle;rounded=0;orthogonalLoop=1;jettySize=auto;html=1;" edge="1" parent="1" source="q_vgm2Y0gYOVun20q5jM-30" target="q_vgm2Y0gYOVun20q5jM-32">
          <mxGeometry relative="1" as="geometry" />
        </mxCell>
        <mxCell id="q_vgm2Y0gYOVun20q5jM-30" value="Portfólio" style="whiteSpace=wrap;html=1;rounded=1;" vertex="1" parent="1">
          <mxGeometry x="160" y="450" width="120" height="60" as="geometry" />
        </mxCell>
        <mxCell id="q_vgm2Y0gYOVun20q5jM-32" value="Contato" style="whiteSpace=wrap;html=1;rounded=1;" vertex="1" parent="1">
          <mxGeometry x="160" y="554.5" width="120" height="60" as="geometry" />
        </mxCell>
      </root>
    </mxGraphModel>
  </diagram>
</mxfile>
